<?xml version="1.0" encoding="UTF-8"?>
<svg id="Layer_2" xmlns="http://www.w3.org/2000/svg" viewBox="0 0 700 81.48">
  <defs>
    <style>
      .cls-1 {
        fill: #7c9c3d;
      }
    </style>
  </defs>
  <g id="Layer_1-2" data-name="Layer_1">
    <path class="cls-1" d="M22.9,39.54C22.9,55.43,13.52,69.13,0,75.42c0-.42,0-72.42,0-71.75,13.52,6.28,22.89,19.99,22.89,35.88Z"/>
    <circle class="cls-1" cx="64.83" cy="39.54" r="39.54"/>
    <circle class="cls-1" cx="146.31" cy="39.54" r="39.54"/>
    <circle class="cls-1" cx="227.79" cy="41.94" r="39.54"/>
    <circle class="cls-1" cx="309.26" cy="41.94" r="39.54"/>
    <circle class="cls-1" cx="390.74" cy="41.94" r="39.54"/>
    <circle class="cls-1" cx="472.21" cy="41.94" r="39.54"/>
    <circle class="cls-1" cx="553.69" cy="41.94" r="39.54"/>
    <circle class="cls-1" cx="635.17" cy="41.94" r="39.54"/>
    <path class="cls-1" d="M700,77.81c-13.52-6.28-22.9-19.99-22.9-35.88s9.37-29.59,22.89-35.88c0-.06,0,71.94,0,71.75Z"/>
    <rect class="cls-1" y="35.95" width="700" height="45.53"/>
  </g>
</svg>